<mxfile host="app.diagrams.net" modified="2023-05-21T19:47:04.782Z" agent="Mozilla/5.0 (Windows NT 10.0; Win64; x64; rv:109.0) Gecko/20100101 Firefox/113.0" etag="I1Pz4Zk544x59LJp3vAA" version="21.3.2" type="device">
  <diagram name="Page-1" id="w8QQlZ-JK28JOUeCJ5Nt">
    <mxGraphModel dx="3240" dy="2403" grid="1" gridSize="10" guides="1" tooltips="1" connect="1" arrows="1" fold="1" page="1" pageScale="1" pageWidth="850" pageHeight="1100" math="0" shadow="0">
      <root>
        <mxCell id="0" />
        <mxCell id="1" parent="0" />
        <mxCell id="bslvJimn1WOYWx1aQpcS-2" style="edgeStyle=orthogonalEdgeStyle;rounded=0;orthogonalLoop=1;jettySize=auto;html=1;" edge="1" parent="1">
          <mxGeometry relative="1" as="geometry">
            <mxPoint x="420" y="-20" as="targetPoint" />
            <mxPoint x="420" y="-50" as="sourcePoint" />
          </mxGeometry>
        </mxCell>
        <mxCell id="bslvJimn1WOYWx1aQpcS-41" style="edgeStyle=orthogonalEdgeStyle;rounded=0;orthogonalLoop=1;jettySize=auto;html=1;exitX=0.5;exitY=1;exitDx=0;exitDy=0;" edge="1" parent="1" source="bslvJimn1WOYWx1aQpcS-5">
          <mxGeometry relative="1" as="geometry">
            <mxPoint x="90.28571428571445" y="310" as="targetPoint" />
          </mxGeometry>
        </mxCell>
        <mxCell id="bslvJimn1WOYWx1aQpcS-5" value="&lt;font style=&quot;font-size: 18px;&quot;&gt;Установить точку &lt;font style=&quot;font-size: 18px;&quot;&gt;запуска&lt;/font&gt;&lt;/font&gt;" style="rounded=1;whiteSpace=wrap;html=1;imageWidth=24;arcSize=38;" vertex="1" parent="1">
          <mxGeometry x="10" y="90" width="160" height="40" as="geometry" />
        </mxCell>
        <mxCell id="bslvJimn1WOYWx1aQpcS-46" style="edgeStyle=orthogonalEdgeStyle;rounded=0;orthogonalLoop=1;jettySize=auto;html=1;exitX=0.5;exitY=1;exitDx=0;exitDy=0;" edge="1" parent="1" source="bslvJimn1WOYWx1aQpcS-6">
          <mxGeometry relative="1" as="geometry">
            <mxPoint x="180" y="310" as="targetPoint" />
          </mxGeometry>
        </mxCell>
        <mxCell id="bslvJimn1WOYWx1aQpcS-6" value="&lt;font style=&quot;font-size: 18px;&quot;&gt;Обозначить область съемки&lt;/font&gt;" style="rounded=1;whiteSpace=wrap;html=1;imageWidth=24;arcSize=38;" vertex="1" parent="1">
          <mxGeometry x="100" y="140" width="160" height="40" as="geometry" />
        </mxCell>
        <mxCell id="bslvJimn1WOYWx1aQpcS-47" style="edgeStyle=orthogonalEdgeStyle;rounded=0;orthogonalLoop=1;jettySize=auto;html=1;exitX=0.5;exitY=1;exitDx=0;exitDy=0;" edge="1" parent="1" source="bslvJimn1WOYWx1aQpcS-7">
          <mxGeometry relative="1" as="geometry">
            <mxPoint x="270" y="310" as="targetPoint" />
          </mxGeometry>
        </mxCell>
        <mxCell id="bslvJimn1WOYWx1aQpcS-7" value="&lt;font style=&quot;font-size: 18px;&quot;&gt;Выбрать алгоритм&lt;/font&gt;" style="rounded=1;whiteSpace=wrap;html=1;imageWidth=24;arcSize=38;" vertex="1" parent="1">
          <mxGeometry x="190" y="90" width="160" height="40" as="geometry" />
        </mxCell>
        <mxCell id="bslvJimn1WOYWx1aQpcS-48" style="edgeStyle=orthogonalEdgeStyle;rounded=0;orthogonalLoop=1;jettySize=auto;html=1;exitX=0.5;exitY=1;exitDx=0;exitDy=0;" edge="1" parent="1" source="bslvJimn1WOYWx1aQpcS-8">
          <mxGeometry relative="1" as="geometry">
            <mxPoint x="360" y="310" as="targetPoint" />
          </mxGeometry>
        </mxCell>
        <mxCell id="bslvJimn1WOYWx1aQpcS-8" value="&lt;font style=&quot;font-size: 18px;&quot;&gt;Выбрать дрон&lt;br&gt;&lt;/font&gt;" style="rounded=1;whiteSpace=wrap;html=1;imageWidth=24;arcSize=38;" vertex="1" parent="1">
          <mxGeometry x="280" y="140" width="160" height="40" as="geometry" />
        </mxCell>
        <mxCell id="bslvJimn1WOYWx1aQpcS-49" style="edgeStyle=orthogonalEdgeStyle;rounded=0;orthogonalLoop=1;jettySize=auto;html=1;exitX=0.5;exitY=1;exitDx=0;exitDy=0;" edge="1" parent="1" source="bslvJimn1WOYWx1aQpcS-9">
          <mxGeometry relative="1" as="geometry">
            <mxPoint x="450" y="310" as="targetPoint" />
          </mxGeometry>
        </mxCell>
        <mxCell id="bslvJimn1WOYWx1aQpcS-9" value="&lt;font style=&quot;font-size: 18px;&quot;&gt;Выбрать камеру&lt;br&gt;&lt;/font&gt;" style="rounded=1;whiteSpace=wrap;html=1;imageWidth=24;arcSize=38;" vertex="1" parent="1">
          <mxGeometry x="370" y="90" width="160" height="40" as="geometry" />
        </mxCell>
        <mxCell id="bslvJimn1WOYWx1aQpcS-10" value="&lt;font style=&quot;font-size: 18px;&quot;&gt;Ввести высоту вручную&lt;br&gt;&lt;/font&gt;" style="rounded=1;whiteSpace=wrap;html=1;imageWidth=24;arcSize=38;" vertex="1" parent="1">
          <mxGeometry x="460" y="170" width="160" height="40" as="geometry" />
        </mxCell>
        <mxCell id="bslvJimn1WOYWx1aQpcS-11" value="&lt;font style=&quot;font-size: 18px;&quot;&gt;Ввести процент перекрытия&lt;br&gt;&lt;/font&gt;" style="rounded=1;whiteSpace=wrap;html=1;imageWidth=24;arcSize=38;" vertex="1" parent="1">
          <mxGeometry x="560.29" y="90" width="160" height="40" as="geometry" />
        </mxCell>
        <mxCell id="bslvJimn1WOYWx1aQpcS-12" value="&lt;font style=&quot;font-size: 18px;&quot;&gt;Ввести разрешение съемки&lt;br&gt;&lt;/font&gt;" style="rounded=1;whiteSpace=wrap;html=1;imageWidth=24;arcSize=38;" vertex="1" parent="1">
          <mxGeometry x="660.29" y="170" width="180" height="40" as="geometry" />
        </mxCell>
        <mxCell id="bslvJimn1WOYWx1aQpcS-13" value="&lt;font style=&quot;font-size: 18px;&quot;&gt;Рассчитать высоту&lt;br&gt;&lt;/font&gt;" style="rounded=1;whiteSpace=wrap;html=1;imageWidth=24;arcSize=38;" vertex="1" parent="1">
          <mxGeometry x="660.29" y="230" width="180" height="40" as="geometry" />
        </mxCell>
        <mxCell id="bslvJimn1WOYWx1aQpcS-15" value="" style="endArrow=none;html=1;rounded=0;" edge="1" parent="1">
          <mxGeometry width="50" height="50" relative="1" as="geometry">
            <mxPoint x="90" y="70" as="sourcePoint" />
            <mxPoint x="640" y="70" as="targetPoint" />
          </mxGeometry>
        </mxCell>
        <mxCell id="bslvJimn1WOYWx1aQpcS-20" style="edgeStyle=orthogonalEdgeStyle;rounded=0;orthogonalLoop=1;jettySize=auto;html=1;entryX=0.5;entryY=0;entryDx=0;entryDy=0;" edge="1" parent="1" target="bslvJimn1WOYWx1aQpcS-5">
          <mxGeometry relative="1" as="geometry">
            <mxPoint x="89.9" y="100" as="targetPoint" />
            <mxPoint x="90" y="70" as="sourcePoint" />
            <Array as="points">
              <mxPoint x="90" y="90" />
              <mxPoint x="90" y="90" />
            </Array>
          </mxGeometry>
        </mxCell>
        <mxCell id="bslvJimn1WOYWx1aQpcS-21" style="edgeStyle=orthogonalEdgeStyle;rounded=0;orthogonalLoop=1;jettySize=auto;html=1;entryX=0.5;entryY=0;entryDx=0;entryDy=0;" edge="1" parent="1" target="bslvJimn1WOYWx1aQpcS-6">
          <mxGeometry relative="1" as="geometry">
            <mxPoint x="259.86" y="110" as="targetPoint" />
            <mxPoint x="180" y="70" as="sourcePoint" />
            <Array as="points">
              <mxPoint x="180" y="80" />
            </Array>
          </mxGeometry>
        </mxCell>
        <mxCell id="bslvJimn1WOYWx1aQpcS-22" style="edgeStyle=orthogonalEdgeStyle;rounded=0;orthogonalLoop=1;jettySize=auto;html=1;" edge="1" parent="1">
          <mxGeometry relative="1" as="geometry">
            <mxPoint x="270" y="90" as="targetPoint" />
            <mxPoint x="269.8899999999999" y="70" as="sourcePoint" />
            <Array as="points">
              <mxPoint x="269.8899999999999" y="90" />
              <mxPoint x="269.8899999999999" y="90" />
            </Array>
          </mxGeometry>
        </mxCell>
        <mxCell id="bslvJimn1WOYWx1aQpcS-23" style="edgeStyle=orthogonalEdgeStyle;rounded=0;orthogonalLoop=1;jettySize=auto;html=1;entryX=0.5;entryY=0;entryDx=0;entryDy=0;" edge="1" parent="1" target="bslvJimn1WOYWx1aQpcS-8">
          <mxGeometry relative="1" as="geometry">
            <mxPoint x="359.6399999999999" y="110" as="targetPoint" />
            <mxPoint x="359.6399999999999" y="70" as="sourcePoint" />
            <Array as="points">
              <mxPoint x="360" y="90" />
              <mxPoint x="360" y="90" />
            </Array>
          </mxGeometry>
        </mxCell>
        <mxCell id="bslvJimn1WOYWx1aQpcS-24" style="edgeStyle=orthogonalEdgeStyle;rounded=0;orthogonalLoop=1;jettySize=auto;html=1;" edge="1" parent="1">
          <mxGeometry relative="1" as="geometry">
            <mxPoint x="450" y="90" as="targetPoint" />
            <mxPoint x="449.4999999999999" y="70" as="sourcePoint" />
            <Array as="points">
              <mxPoint x="449.4999999999999" y="90" />
              <mxPoint x="449.4999999999999" y="90" />
            </Array>
          </mxGeometry>
        </mxCell>
        <mxCell id="bslvJimn1WOYWx1aQpcS-25" value="" style="endArrow=none;html=1;rounded=0;" edge="1" parent="1">
          <mxGeometry width="50" height="50" relative="1" as="geometry">
            <mxPoint x="540.29" y="150" as="sourcePoint" />
            <mxPoint x="750.29" y="150" as="targetPoint" />
          </mxGeometry>
        </mxCell>
        <mxCell id="bslvJimn1WOYWx1aQpcS-29" style="edgeStyle=orthogonalEdgeStyle;rounded=0;orthogonalLoop=1;jettySize=auto;html=1;" edge="1" parent="1">
          <mxGeometry relative="1" as="geometry">
            <mxPoint x="640" y="90" as="targetPoint" />
            <mxPoint x="640.29" y="70" as="sourcePoint" />
            <Array as="points">
              <mxPoint x="640.29" y="90" />
              <mxPoint x="640.29" y="90" />
            </Array>
          </mxGeometry>
        </mxCell>
        <mxCell id="bslvJimn1WOYWx1aQpcS-30" style="edgeStyle=orthogonalEdgeStyle;rounded=0;orthogonalLoop=1;jettySize=auto;html=1;" edge="1" parent="1">
          <mxGeometry relative="1" as="geometry">
            <mxPoint x="750.1700000000001" y="230" as="targetPoint" />
            <mxPoint x="750.1699999999998" y="210" as="sourcePoint" />
            <Array as="points">
              <mxPoint x="750.1699999999998" y="230" />
              <mxPoint x="750.1699999999998" y="230" />
            </Array>
          </mxGeometry>
        </mxCell>
        <mxCell id="bslvJimn1WOYWx1aQpcS-32" style="edgeStyle=orthogonalEdgeStyle;rounded=0;orthogonalLoop=1;jettySize=auto;html=1;" edge="1" parent="1">
          <mxGeometry relative="1" as="geometry">
            <mxPoint x="750.1700000000001" y="290" as="targetPoint" />
            <mxPoint x="750.1699999999998" y="270" as="sourcePoint" />
            <Array as="points">
              <mxPoint x="750.1699999999998" y="290" />
              <mxPoint x="750.1699999999998" y="290" />
            </Array>
          </mxGeometry>
        </mxCell>
        <mxCell id="bslvJimn1WOYWx1aQpcS-33" style="edgeStyle=orthogonalEdgeStyle;rounded=0;orthogonalLoop=1;jettySize=auto;html=1;" edge="1" parent="1">
          <mxGeometry relative="1" as="geometry">
            <mxPoint x="540.29" y="290" as="targetPoint" />
            <mxPoint x="540.1199999999999" y="210" as="sourcePoint" />
            <Array as="points">
              <mxPoint x="540.1199999999999" y="230" />
              <mxPoint x="540.1199999999999" y="230" />
            </Array>
          </mxGeometry>
        </mxCell>
        <mxCell id="bslvJimn1WOYWx1aQpcS-35" style="edgeStyle=orthogonalEdgeStyle;rounded=0;orthogonalLoop=1;jettySize=auto;html=1;" edge="1" parent="1">
          <mxGeometry relative="1" as="geometry">
            <mxPoint x="640.1700000000001" y="150" as="targetPoint" />
            <mxPoint x="640.1699999999998" y="130" as="sourcePoint" />
            <Array as="points">
              <mxPoint x="640.1699999999998" y="150" />
              <mxPoint x="640.1699999999998" y="150" />
            </Array>
          </mxGeometry>
        </mxCell>
        <mxCell id="bslvJimn1WOYWx1aQpcS-36" style="edgeStyle=orthogonalEdgeStyle;rounded=0;orthogonalLoop=1;jettySize=auto;html=1;" edge="1" parent="1">
          <mxGeometry relative="1" as="geometry">
            <mxPoint x="540.04" y="170" as="targetPoint" />
            <mxPoint x="540.0399999999997" y="150" as="sourcePoint" />
            <Array as="points">
              <mxPoint x="540.0399999999997" y="170" />
              <mxPoint x="540.0399999999997" y="170" />
            </Array>
          </mxGeometry>
        </mxCell>
        <mxCell id="bslvJimn1WOYWx1aQpcS-37" style="edgeStyle=orthogonalEdgeStyle;rounded=0;orthogonalLoop=1;jettySize=auto;html=1;" edge="1" parent="1">
          <mxGeometry relative="1" as="geometry">
            <mxPoint x="750.23" y="170" as="targetPoint" />
            <mxPoint x="750.2299999999998" y="150" as="sourcePoint" />
            <Array as="points">
              <mxPoint x="750.2299999999998" y="170" />
              <mxPoint x="750.2299999999998" y="170" />
            </Array>
          </mxGeometry>
        </mxCell>
        <mxCell id="bslvJimn1WOYWx1aQpcS-38" value="" style="endArrow=none;html=1;rounded=0;" edge="1" parent="1">
          <mxGeometry width="50" height="50" relative="1" as="geometry">
            <mxPoint x="540.29" y="290" as="sourcePoint" />
            <mxPoint x="750.29" y="290" as="targetPoint" />
          </mxGeometry>
        </mxCell>
        <mxCell id="bslvJimn1WOYWx1aQpcS-39" style="edgeStyle=orthogonalEdgeStyle;rounded=0;orthogonalLoop=1;jettySize=auto;html=1;" edge="1" parent="1">
          <mxGeometry relative="1" as="geometry">
            <mxPoint x="640.2099999999998" y="310" as="targetPoint" />
            <mxPoint x="640.2099999999998" y="290" as="sourcePoint" />
            <Array as="points">
              <mxPoint x="640.2099999999998" y="310" />
              <mxPoint x="640.2099999999998" y="310" />
            </Array>
          </mxGeometry>
        </mxCell>
        <mxCell id="bslvJimn1WOYWx1aQpcS-40" value="" style="endArrow=none;html=1;rounded=0;" edge="1" parent="1">
          <mxGeometry width="50" height="50" relative="1" as="geometry">
            <mxPoint x="90" y="310" as="sourcePoint" />
            <mxPoint x="640" y="310" as="targetPoint" />
          </mxGeometry>
        </mxCell>
        <mxCell id="bslvJimn1WOYWx1aQpcS-50" value="" style="ellipse;whiteSpace=wrap;html=1;aspect=fixed;fillColor=#000000;" vertex="1" parent="1">
          <mxGeometry x="405" y="635" width="30" height="30" as="geometry" />
        </mxCell>
        <mxCell id="bslvJimn1WOYWx1aQpcS-52" value="" style="ellipse;whiteSpace=wrap;html=1;aspect=fixed;fillColor=none;" vertex="1" parent="1">
          <mxGeometry x="400" y="630" width="40" height="40" as="geometry" />
        </mxCell>
        <mxCell id="bslvJimn1WOYWx1aQpcS-53" value="" style="ellipse;whiteSpace=wrap;html=1;aspect=fixed;fillColor=#000000;" vertex="1" parent="1">
          <mxGeometry x="400" y="-80" width="40" height="40" as="geometry" />
        </mxCell>
        <mxCell id="bslvJimn1WOYWx1aQpcS-55" style="edgeStyle=orthogonalEdgeStyle;rounded=0;orthogonalLoop=1;jettySize=auto;html=1;" edge="1" parent="1">
          <mxGeometry relative="1" as="geometry">
            <mxPoint x="319.91999999999985" y="329.99" as="targetPoint" />
            <mxPoint x="319.91999999999985" y="309.99" as="sourcePoint" />
            <Array as="points">
              <mxPoint x="319.91999999999985" y="329.99" />
              <mxPoint x="319.91999999999985" y="329.99" />
            </Array>
          </mxGeometry>
        </mxCell>
        <mxCell id="bslvJimn1WOYWx1aQpcS-58" style="edgeStyle=orthogonalEdgeStyle;rounded=0;orthogonalLoop=1;jettySize=auto;html=1;exitX=0;exitY=0.5;exitDx=0;exitDy=0;entryX=0;entryY=0.5;entryDx=0;entryDy=0;" edge="1" parent="1" source="bslvJimn1WOYWx1aQpcS-56" target="bslvJimn1WOYWx1aQpcS-114">
          <mxGeometry relative="1" as="geometry">
            <mxPoint x="365" y="40" as="targetPoint" />
            <Array as="points">
              <mxPoint y="355" />
              <mxPoint y="25" />
            </Array>
          </mxGeometry>
        </mxCell>
        <mxCell id="bslvJimn1WOYWx1aQpcS-60" style="edgeStyle=orthogonalEdgeStyle;rounded=0;orthogonalLoop=1;jettySize=auto;html=1;exitX=0.5;exitY=1;exitDx=0;exitDy=0;" edge="1" parent="1" source="bslvJimn1WOYWx1aQpcS-56">
          <mxGeometry relative="1" as="geometry">
            <mxPoint x="320" y="400" as="targetPoint" />
            <mxPoint x="320" y="360" as="sourcePoint" />
          </mxGeometry>
        </mxCell>
        <mxCell id="bslvJimn1WOYWx1aQpcS-56" value="" style="rhombus;whiteSpace=wrap;html=1;" vertex="1" parent="1">
          <mxGeometry x="295" y="330" width="50" height="50" as="geometry" />
        </mxCell>
        <mxCell id="bslvJimn1WOYWx1aQpcS-57" value="&lt;font style=&quot;font-size: 20px;&quot;&gt;все данные введены&lt;/font&gt;" style="text;html=1;strokeColor=none;fillColor=none;align=center;verticalAlign=middle;whiteSpace=wrap;rounded=0;" vertex="1" parent="1">
          <mxGeometry x="325" y="360" width="200" height="30" as="geometry" />
        </mxCell>
        <mxCell id="bslvJimn1WOYWx1aQpcS-81" style="edgeStyle=orthogonalEdgeStyle;rounded=0;orthogonalLoop=1;jettySize=auto;html=1;exitX=1;exitY=0.5;exitDx=0;exitDy=0;entryX=0.5;entryY=0;entryDx=0;entryDy=0;" edge="1" parent="1" source="bslvJimn1WOYWx1aQpcS-74" target="bslvJimn1WOYWx1aQpcS-88">
          <mxGeometry relative="1" as="geometry">
            <mxPoint x="440" y="470" as="targetPoint" />
          </mxGeometry>
        </mxCell>
        <mxCell id="bslvJimn1WOYWx1aQpcS-83" style="edgeStyle=orthogonalEdgeStyle;rounded=0;orthogonalLoop=1;jettySize=auto;html=1;exitX=0;exitY=0.5;exitDx=0;exitDy=0;entryX=0.5;entryY=0;entryDx=0;entryDy=0;" edge="1" parent="1" source="bslvJimn1WOYWx1aQpcS-74" target="bslvJimn1WOYWx1aQpcS-84">
          <mxGeometry relative="1" as="geometry">
            <mxPoint x="200" y="470" as="targetPoint" />
          </mxGeometry>
        </mxCell>
        <mxCell id="bslvJimn1WOYWx1aQpcS-74" value="" style="rhombus;whiteSpace=wrap;html=1;" vertex="1" parent="1">
          <mxGeometry x="295" y="400" width="50" height="50" as="geometry" />
        </mxCell>
        <mxCell id="bslvJimn1WOYWx1aQpcS-75" value="&lt;font style=&quot;font-size: 20px;&quot;&gt;валидация успешна&lt;/font&gt;" style="text;html=1;strokeColor=none;fillColor=none;align=center;verticalAlign=middle;whiteSpace=wrap;rounded=0;" vertex="1" parent="1">
          <mxGeometry x="90" y="400" width="230" height="30" as="geometry" />
        </mxCell>
        <mxCell id="bslvJimn1WOYWx1aQpcS-78" value="&lt;font style=&quot;font-size: 20px;&quot;&gt;не&lt;/font&gt;&lt;font style=&quot;font-size: 20px;&quot;&gt; все данные введены&lt;/font&gt;" style="text;html=1;strokeColor=none;fillColor=none;align=center;verticalAlign=middle;whiteSpace=wrap;rounded=0;" vertex="1" parent="1">
          <mxGeometry x="20" y="330" width="230" height="30" as="geometry" />
        </mxCell>
        <mxCell id="bslvJimn1WOYWx1aQpcS-79" value="&lt;font style=&quot;font-size: 20px;&quot;&gt;валидация провалена&lt;/font&gt;" style="text;html=1;strokeColor=none;fillColor=none;align=center;verticalAlign=middle;whiteSpace=wrap;rounded=0;" vertex="1" parent="1">
          <mxGeometry x="335" y="400" width="230" height="30" as="geometry" />
        </mxCell>
        <mxCell id="bslvJimn1WOYWx1aQpcS-109" style="edgeStyle=orthogonalEdgeStyle;rounded=0;orthogonalLoop=1;jettySize=auto;html=1;exitX=0.5;exitY=1;exitDx=0;exitDy=0;" edge="1" parent="1" source="bslvJimn1WOYWx1aQpcS-82">
          <mxGeometry relative="1" as="geometry">
            <mxPoint x="360" y="610" as="targetPoint" />
          </mxGeometry>
        </mxCell>
        <mxCell id="bslvJimn1WOYWx1aQpcS-82" value="" style="rhombus;whiteSpace=wrap;html=1;" vertex="1" parent="1">
          <mxGeometry x="335" y="540" width="50" height="50" as="geometry" />
        </mxCell>
        <mxCell id="bslvJimn1WOYWx1aQpcS-84" value="&lt;font style=&quot;font-size: 18px;&quot;&gt;Отобразить маршрут на карте&lt;br&gt;&lt;/font&gt;" style="rounded=1;whiteSpace=wrap;html=1;imageWidth=24;arcSize=38;" vertex="1" parent="1">
          <mxGeometry x="100" y="450" width="200" height="40" as="geometry" />
        </mxCell>
        <mxCell id="bslvJimn1WOYWx1aQpcS-91" style="edgeStyle=orthogonalEdgeStyle;rounded=0;orthogonalLoop=1;jettySize=auto;html=1;exitX=0.5;exitY=1;exitDx=0;exitDy=0;entryX=0;entryY=0.5;entryDx=0;entryDy=0;" edge="1" parent="1" source="bslvJimn1WOYWx1aQpcS-85" target="bslvJimn1WOYWx1aQpcS-82">
          <mxGeometry relative="1" as="geometry">
            <Array as="points">
              <mxPoint x="200" y="565" />
            </Array>
          </mxGeometry>
        </mxCell>
        <mxCell id="bslvJimn1WOYWx1aQpcS-85" value="&lt;font style=&quot;font-size: 18px;&quot;&gt;Экспортировать маршрут в GeoJSON&lt;br&gt;&lt;/font&gt;" style="rounded=1;whiteSpace=wrap;html=1;imageWidth=24;arcSize=38;" vertex="1" parent="1">
          <mxGeometry x="100" y="510" width="200" height="40" as="geometry" />
        </mxCell>
        <mxCell id="bslvJimn1WOYWx1aQpcS-87" style="edgeStyle=orthogonalEdgeStyle;rounded=0;orthogonalLoop=1;jettySize=auto;html=1;" edge="1" parent="1">
          <mxGeometry relative="1" as="geometry">
            <mxPoint x="199.91999999999982" y="510" as="targetPoint" />
            <mxPoint x="199.91999999999982" y="490" as="sourcePoint" />
            <Array as="points">
              <mxPoint x="199.91999999999982" y="510" />
              <mxPoint x="199.91999999999982" y="510" />
            </Array>
          </mxGeometry>
        </mxCell>
        <mxCell id="bslvJimn1WOYWx1aQpcS-92" style="edgeStyle=orthogonalEdgeStyle;rounded=0;orthogonalLoop=1;jettySize=auto;html=1;exitX=0.5;exitY=1;exitDx=0;exitDy=0;entryX=1;entryY=0.5;entryDx=0;entryDy=0;" edge="1" parent="1" source="bslvJimn1WOYWx1aQpcS-88" target="bslvJimn1WOYWx1aQpcS-82">
          <mxGeometry relative="1" as="geometry" />
        </mxCell>
        <mxCell id="bslvJimn1WOYWx1aQpcS-88" value="&lt;font style=&quot;font-size: 18px;&quot;&gt;Отобразить ошибку валидации&lt;br&gt;&lt;/font&gt;" style="rounded=1;whiteSpace=wrap;html=1;imageWidth=24;arcSize=38;" vertex="1" parent="1">
          <mxGeometry x="340" y="450" width="200" height="40" as="geometry" />
        </mxCell>
        <mxCell id="bslvJimn1WOYWx1aQpcS-90" value="" style="endArrow=none;html=1;rounded=0;" edge="1" parent="1">
          <mxGeometry width="50" height="50" relative="1" as="geometry">
            <mxPoint x="360" y="610" as="sourcePoint" />
            <mxPoint x="820" y="610" as="targetPoint" />
          </mxGeometry>
        </mxCell>
        <mxCell id="bslvJimn1WOYWx1aQpcS-93" style="edgeStyle=orthogonalEdgeStyle;rounded=0;orthogonalLoop=1;jettySize=auto;html=1;entryX=0.5;entryY=0;entryDx=0;entryDy=0;" edge="1" parent="1" target="bslvJimn1WOYWx1aQpcS-97">
          <mxGeometry relative="1" as="geometry">
            <mxPoint x="850" y="350" as="targetPoint" />
            <mxPoint x="850" y="-20" as="sourcePoint" />
            <Array as="points">
              <mxPoint x="850" y="350" />
              <mxPoint x="640" y="350" />
            </Array>
          </mxGeometry>
        </mxCell>
        <mxCell id="bslvJimn1WOYWx1aQpcS-103" style="edgeStyle=orthogonalEdgeStyle;rounded=0;orthogonalLoop=1;jettySize=auto;html=1;exitX=0.5;exitY=1;exitDx=0;exitDy=0;entryX=0.5;entryY=0;entryDx=0;entryDy=0;" edge="1" parent="1" source="bslvJimn1WOYWx1aQpcS-96" target="bslvJimn1WOYWx1aQpcS-106">
          <mxGeometry relative="1" as="geometry">
            <mxPoint x="820" y="470" as="targetPoint" />
          </mxGeometry>
        </mxCell>
        <mxCell id="bslvJimn1WOYWx1aQpcS-96" value="&lt;font style=&quot;font-size: 18px;&quot;&gt;Выбрать &lt;/font&gt;&lt;font style=&quot;font-size: 18px;&quot;&gt;камеру&lt;/font&gt;" style="rounded=1;whiteSpace=wrap;html=1;imageWidth=24;arcSize=38;" vertex="1" parent="1">
          <mxGeometry x="740" y="390" width="160" height="40" as="geometry" />
        </mxCell>
        <mxCell id="bslvJimn1WOYWx1aQpcS-104" style="edgeStyle=orthogonalEdgeStyle;rounded=0;orthogonalLoop=1;jettySize=auto;html=1;exitX=0.5;exitY=1;exitDx=0;exitDy=0;entryX=0.5;entryY=0;entryDx=0;entryDy=0;" edge="1" parent="1" source="bslvJimn1WOYWx1aQpcS-97" target="bslvJimn1WOYWx1aQpcS-105">
          <mxGeometry relative="1" as="geometry">
            <mxPoint x="640" y="470" as="targetPoint" />
          </mxGeometry>
        </mxCell>
        <mxCell id="bslvJimn1WOYWx1aQpcS-97" value="&lt;font style=&quot;font-size: 18px;&quot;&gt;Выбрать дрон&lt;br&gt;&lt;/font&gt;" style="rounded=1;whiteSpace=wrap;html=1;imageWidth=24;arcSize=38;" vertex="1" parent="1">
          <mxGeometry x="560.29" y="390" width="160" height="40" as="geometry" />
        </mxCell>
        <mxCell id="bslvJimn1WOYWx1aQpcS-102" style="edgeStyle=orthogonalEdgeStyle;rounded=0;orthogonalLoop=1;jettySize=auto;html=1;entryX=0.5;entryY=0;entryDx=0;entryDy=0;" edge="1" parent="1" target="bslvJimn1WOYWx1aQpcS-96">
          <mxGeometry relative="1" as="geometry">
            <mxPoint x="820" y="430" as="targetPoint" />
            <mxPoint x="870" y="-20" as="sourcePoint" />
            <Array as="points">
              <mxPoint x="870" y="370" />
              <mxPoint x="820" y="370" />
            </Array>
          </mxGeometry>
        </mxCell>
        <mxCell id="bslvJimn1WOYWx1aQpcS-108" style="edgeStyle=orthogonalEdgeStyle;rounded=0;orthogonalLoop=1;jettySize=auto;html=1;exitX=0.5;exitY=1;exitDx=0;exitDy=0;" edge="1" parent="1" source="bslvJimn1WOYWx1aQpcS-105">
          <mxGeometry relative="1" as="geometry">
            <mxPoint x="640" y="610" as="targetPoint" />
          </mxGeometry>
        </mxCell>
        <mxCell id="bslvJimn1WOYWx1aQpcS-105" value="&lt;font style=&quot;font-size: 18px;&quot;&gt;Изменить дрон&lt;/font&gt;" style="rounded=1;whiteSpace=wrap;html=1;imageWidth=24;arcSize=38;" vertex="1" parent="1">
          <mxGeometry x="560.29" y="450" width="160" height="40" as="geometry" />
        </mxCell>
        <mxCell id="bslvJimn1WOYWx1aQpcS-107" style="edgeStyle=orthogonalEdgeStyle;rounded=0;orthogonalLoop=1;jettySize=auto;html=1;exitX=0.5;exitY=1;exitDx=0;exitDy=0;" edge="1" parent="1" source="bslvJimn1WOYWx1aQpcS-106">
          <mxGeometry relative="1" as="geometry">
            <mxPoint x="820" y="610" as="targetPoint" />
          </mxGeometry>
        </mxCell>
        <mxCell id="bslvJimn1WOYWx1aQpcS-106" value="&lt;font style=&quot;font-size: 18px;&quot;&gt;Изменить камеру&lt;br&gt;&lt;/font&gt;" style="rounded=1;whiteSpace=wrap;html=1;imageWidth=24;arcSize=38;" vertex="1" parent="1">
          <mxGeometry x="740" y="450" width="160" height="40" as="geometry" />
        </mxCell>
        <mxCell id="bslvJimn1WOYWx1aQpcS-110" style="edgeStyle=orthogonalEdgeStyle;rounded=0;orthogonalLoop=1;jettySize=auto;html=1;exitX=0.5;exitY=1;exitDx=0;exitDy=0;" edge="1" parent="1">
          <mxGeometry relative="1" as="geometry">
            <mxPoint x="419.89" y="630" as="targetPoint" />
            <mxPoint x="419.89" y="610" as="sourcePoint" />
          </mxGeometry>
        </mxCell>
        <mxCell id="bslvJimn1WOYWx1aQpcS-111" value="" style="rounded=0;whiteSpace=wrap;html=1;fillColor=none;strokeColor=default;" vertex="1" parent="1">
          <mxGeometry x="-10" y="-90" width="920" height="770" as="geometry" />
        </mxCell>
        <mxCell id="bslvJimn1WOYWx1aQpcS-112" value="" style="endArrow=none;html=1;rounded=0;" edge="1" parent="1">
          <mxGeometry width="50" height="50" relative="1" as="geometry">
            <mxPoint x="360" y="-20" as="sourcePoint" />
            <mxPoint x="870" y="-20" as="targetPoint" />
          </mxGeometry>
        </mxCell>
        <mxCell id="bslvJimn1WOYWx1aQpcS-113" style="edgeStyle=orthogonalEdgeStyle;rounded=0;orthogonalLoop=1;jettySize=auto;html=1;" edge="1" parent="1">
          <mxGeometry relative="1" as="geometry">
            <mxPoint x="360" y="70" as="targetPoint" />
            <mxPoint x="360" y="50" as="sourcePoint" />
            <Array as="points">
              <mxPoint x="359.9999999999999" y="50" />
              <mxPoint x="359.9999999999999" y="50" />
            </Array>
          </mxGeometry>
        </mxCell>
        <mxCell id="bslvJimn1WOYWx1aQpcS-114" value="" style="rhombus;whiteSpace=wrap;html=1;" vertex="1" parent="1">
          <mxGeometry x="335" width="50" height="50" as="geometry" />
        </mxCell>
        <mxCell id="bslvJimn1WOYWx1aQpcS-115" style="edgeStyle=orthogonalEdgeStyle;rounded=0;orthogonalLoop=1;jettySize=auto;html=1;entryX=0.5;entryY=0;entryDx=0;entryDy=0;" edge="1" parent="1">
          <mxGeometry relative="1" as="geometry">
            <mxPoint x="359.9999999999999" as="targetPoint" />
            <mxPoint x="360" y="-20" as="sourcePoint" />
            <Array as="points">
              <mxPoint x="359.9999999999999" y="-20" />
              <mxPoint x="359.9999999999999" y="-20" />
            </Array>
          </mxGeometry>
        </mxCell>
      </root>
    </mxGraphModel>
  </diagram>
</mxfile>
